<svg data-name="Pokedex" xmlns="http://www.w3.org/2000/svg" viewBox="0 0 480 436.33"><g id="Pokedex"><g id="Color"><path d="M392.18,229a395.31,395.31,0,0,0,39-44.47c48.3-63.73,71.47-130,51.75-148.12s-74.86,18.93-123.16,82.65a416.74,416.74,0,0,0-30.05,45.42c-29-24.18-56.63-39.42-77.79-42-20.61-4.34-51.73,9.62-85.17,36.1a422.4,422.4,0,0,0-26.61-39.49C91.89,55.35,36.75,18.34,17,36.42s3.45,84.39,51.75,148.12A405.52,405.52,0,0,0,102,223.19q-9.66,11.73-18.92,24.43C21.7,331.82.68,413.22,36.1,429.42c.32.15.64.27,1,.41,31.33,22.38,112.83,38.33,208.44,38.33,96.37,0,178.4-16.21,209.17-38.87,34-17.32,12.76-97.93-48-181.3Q399.58,238.22,392.18,229Z" transform="translate(-10 -31.84)" fill="#fff"/><path d="M16.86,36.3c-19.23,17.63,3.36,82.28,50.45,144.41,7.09,9.36,14.33,18.11,21.58,26.19l76.36,22.49q-4.56-42.48-9.13-85c-5.83-9.13-12.24-18.36-19.19-27.54C89.84,54.76,36.08,18.68,16.86,36.3Z" transform="translate(-10 -31.84)" fill="#e30613"/></g></g></svg>