<svg data-name="TCG Inactive" xmlns="http://www.w3.org/2000/svg" viewBox="0 0 438 450"><path d="M31.31,80.72,100,467.14V48.68L47.44,57.87A19.74,19.74,0,0,0,31.31,80.72Z" transform="translate(-31 -25)" fill="#fff"/><path d="M452.56,57.87,400,48.68V467.14L468.69,80.72A19.74,19.74,0,0,0,452.56,57.87Z" transform="translate(-31 -25)" fill="#fff"/><path d="M250,275a25,25,0,0,1-24.27-19H186.29a64,64,0,0,0,127.42,0H274.27A25,25,0,0,1,250,275Z" transform="translate(-31 -25)" fill="#fff"/><path d="M265,250a15,15,0,1,0-15,15A15,15,0,0,0,265,250Zm-21.5,0a6.5,6.5,0,1,1,6.5,6.5A6.5,6.5,0,0,1,243.5,250Z" transform="translate(-31 -25)" fill="#fff"/><path d="M250,186a64,64,0,0,0-63.71,58h39.44a25,25,0,0,1,48.54,0h39.44A64,64,0,0,0,250,186Z" transform="translate(-31 -25)" fill="#fff"/><path d="M375,25H125a10,10,0,0,0-10,10V465a10,10,0,0,0,10,10H375a10,10,0,0,0,10-10V35A10,10,0,0,0,375,25ZM250,325a75,75,0,1,1,75-75A75,75,0,0,1,250,325Z" transform="translate(-31 -25)" fill="#fff"/></svg>